<svg xmlns="http://www.w3.org/2000/svg" width="800" height="600" viewBox="0 0 800 600" preserveAspectRatio="xMidYMid slice"><defs><linearGradient id="bg" x1="0%" y1="0%" x2="100%" y2="100%"><stop offset="0" stop-color="#FFF7FB"/><stop offset="1" stop-color="#F1F9FF"/></linearGradient><linearGradient id="panel" x1="0%" y1="0%" x2="100%" y2="100%"><stop offset="0" stop-color="#FFFDFE"/><stop offset="1" stop-color="#EAF4FF"/></linearGradient><radialGradient id="gp" cx="34%" cy="28%" r="78%"><stop offset="0.08" stop-color="#FFC4E0"/><stop offset=".55" stop-color="#FF69B4"/><stop offset="1" stop-color="#D9438C"/></radialGradient><radialGradient id="gps" cx="34%" cy="28%" r="78%"><stop offset="0.08" stop-color="#FFE4F2"/><stop offset=".55" stop-color="#FFA6CF"/><stop offset="1" stop-color="#F07BB4"/></radialGradient><radialGradient id="gb" cx="34%" cy="28%" r="78%"><stop offset="0.08" stop-color="#D9F0FC"/><stop offset=".55" stop-color="#87CEEB"/><stop offset="1" stop-color="#4FA8D8"/></radialGradient><radialGradient id="gg" cx="34%" cy="28%" r="78%"><stop offset="0.08" stop-color="#FFF3BE"/><stop offset=".55" stop-color="#FFD700"/><stop offset="1" stop-color="#D9A800"/></radialGradient></defs><rect width="800" height="600" fill="url(#bg)"/><rect x="250" y="200" width="300" height="320" rx="20" fill="url(#panel)" stroke="#FFD9EE" stroke-width="3"/><rect x="264" y="214" width="272" height="292" rx="14" fill="none" stroke="#FFEAF5" stroke-width="2"/><path d="M264 246v-22a10 10 0 0 1 10-10h22" fill="none" stroke="#FFD700" stroke-width="4" opacity=".85"/><path d="M536 246v-22a10 10 0 0 0-10-10h-22" fill="none" stroke="#FFD700" stroke-width="4" opacity=".85"/><path d="M264 474v22a10 10 0 0 0 10 10h22" fill="none" stroke="#FFD700" stroke-width="4" opacity=".85"/><path d="M536 474v22a10 10 0 0 1-10 10h-22" fill="none" stroke="#FFD700" stroke-width="4" opacity=".85"/><ellipse cx="400" cy="556" rx="300" ry="22" fill="#1F2937" opacity="0.06"/><path d="M96 556Q98 568 96 580M704 556Q702 568 704 580" fill="none" stroke="#C7CDD8" stroke-width="1.5" opacity=".7"/><ellipse cx="112.6" cy="544.2" rx="37.3" ry="41.8" fill="url(#gp)"/><ellipse cx="100.2" cy="529.2" rx="6.3" ry="5.4" fill="#fff" opacity=".5"/><path d="M107.3 585.6h10.5l-5.2 8.4z" fill="#D9438C"/><ellipse cx="90.5" cy="484.5" rx="41.6" ry="46" fill="url(#gb)"/><ellipse cx="76.8" cy="468" rx="7.1" ry="6" fill="#fff" opacity=".5"/><path d="M84.7 530.1h11.7l-5.8 9.2z" fill="#4FA8D8"/><ellipse cx="101" cy="403.9" rx="42.9" ry="49.3" fill="url(#gps)"/><ellipse cx="86.9" cy="386.2" rx="7.3" ry="6.4" fill="#fff" opacity=".5"/><path d="M95 452.7h12l-6 9.9z" fill="#F07BB4"/><ellipse cx="143" cy="330.2" rx="42.7" ry="51.4" fill="url(#gp)"/><ellipse cx="128.9" cy="311.7" rx="7.3" ry="6.7" fill="#fff" opacity=".5"/><path d="M137 381.1h11.9l-6 10.3z" fill="#D9438C"/><ellipse cx="212" cy="271.2" rx="44.2" ry="52.1" fill="url(#gg)"/><ellipse cx="197.4" cy="252.5" rx="7.5" ry="6.8" fill="#fff" opacity=".5"/><path d="M205.8 322.8h12.4l-6.2 10.4z" fill="#D9A800"/><ellipse cx="300.8" cy="233.2" rx="46.3" ry="52.1" fill="url(#gp)"/><ellipse cx="285.5" cy="214.4" rx="7.9" ry="6.8" fill="#fff" opacity=".5"/><path d="M294.3 284.7h13l-6.5 10.4z" fill="#D9438C"/><ellipse cx="400" cy="220" rx="45.6" ry="54" fill="url(#gb)"/><ellipse cx="384.9" cy="200.6" rx="7.8" ry="7" fill="#fff" opacity=".5"/><path d="M393.6 273.4h12.8l-6.4 10.8z" fill="#4FA8D8"/><ellipse cx="499.2" cy="233.2" rx="45.2" ry="53" fill="url(#gps)"/><ellipse cx="484.3" cy="214.1" rx="7.7" ry="6.9" fill="#fff" opacity=".5"/><path d="M492.9 285.6h12.7l-6.3 10.6z" fill="#F07BB4"/><ellipse cx="588" cy="271.2" rx="45.1" ry="52.1" fill="url(#gp)"/><ellipse cx="573.1" cy="252.5" rx="7.7" ry="6.8" fill="#fff" opacity=".5"/><path d="M581.7 322.8h12.6l-6.3 10.4z" fill="#D9438C"/><ellipse cx="657" cy="330.2" rx="45.1" ry="50.9" fill="url(#gg)"/><ellipse cx="642.1" cy="311.9" rx="7.7" ry="6.6" fill="#fff" opacity=".5"/><path d="M650.7 380.6h12.6l-6.3 10.2z" fill="#D9A800"/><ellipse cx="699" cy="403.9" rx="43.6" ry="47.6" fill="url(#gp)"/><ellipse cx="684.6" cy="386.8" rx="7.4" ry="6.2" fill="#fff" opacity=".5"/><path d="M692.9 451h12.2l-6.1 9.5z" fill="#D9438C"/><ellipse cx="709.5" cy="484.5" rx="41.3" ry="45" fill="url(#gps)"/><ellipse cx="695.8" cy="468.3" rx="7" ry="5.8" fill="#fff" opacity=".5"/><path d="M703.7 529.1h11.6l-5.8 9z" fill="#F07BB4"/><ellipse cx="687.4" cy="543.4" rx="39" ry="42.6" fill="url(#gb)"/><ellipse cx="674.5" cy="528.1" rx="6.6" ry="5.5" fill="#fff" opacity=".5"/><path d="M682 585.6h10.9l-5.5 8.5z" fill="#4FA8D8"/><circle cx="96" cy="583" r="5" fill="#4FA8D8"/><circle cx="704" cy="583" r="5" fill="#4FA8D8"/><circle cx="461.3" cy="167.3" r="6.3" fill="#FFD700" opacity=".7"/><rect x="673.4" y="194.7" width="9.8" height="4.7" rx="1.5" fill="#FFD700" opacity=".7" transform="rotate(50 673.4 194.7)"/><circle cx="279.7" cy="209.9" r="4.1" fill="#FFA6CF" opacity=".7"/><rect x="548.6" y="192.9" width="9.7" height="4.3" rx="1.5" fill="#87CEEB" opacity=".7" transform="rotate(59 548.6 192.9)"/><circle cx="579.3" cy="231.9" r="4" fill="#FF69B4" opacity=".7"/><circle cx="575.7" cy="139.9" r="4.3" fill="#FFA6CF" opacity=".7"/><rect x="447" y="378.3" width="7.9" height="3.7" rx="1.5" fill="#FFD700" opacity=".7" transform="rotate(87 447 378.3)"/><rect x="480.2" y="395.3" width="9.2" height="3.3" rx="1.5" fill="#FFA6CF" opacity=".7" transform="rotate(28 480.2 395.3)"/><rect x="310" y="314.1" width="7.8" height="3.2" rx="1.5" fill="#B9E3F7" opacity=".7" transform="rotate(57 310 314.1)"/><circle cx="304.2" cy="333.4" r="3.2" fill="#FFD700" opacity=".7"/></svg>