<svg xmlns="http://www.w3.org/2000/svg" width="800" height="600" viewBox="0 0 800 600" preserveAspectRatio="xMidYMid slice"><defs><linearGradient id="bg" x1="0%" y1="0%" x2="100%" y2="100%"><stop offset="0" stop-color="#FFF7FB"/><stop offset="1" stop-color="#F1F9FF"/></linearGradient><radialGradient id="gp" cx="34%" cy="28%" r="78%"><stop offset="0.08" stop-color="#FFC4E0"/><stop offset=".55" stop-color="#FF69B4"/><stop offset="1" stop-color="#D9438C"/></radialGradient><radialGradient id="gps" cx="34%" cy="28%" r="78%"><stop offset="0.08" stop-color="#FFE4F2"/><stop offset=".55" stop-color="#FFA6CF"/><stop offset="1" stop-color="#F07BB4"/></radialGradient><radialGradient id="gb" cx="34%" cy="28%" r="78%"><stop offset="0.08" stop-color="#D9F0FC"/><stop offset=".55" stop-color="#87CEEB"/><stop offset="1" stop-color="#4FA8D8"/></radialGradient><radialGradient id="gbs" cx="34%" cy="28%" r="78%"><stop offset="0.08" stop-color="#E8F7FF"/><stop offset=".55" stop-color="#A9DCF5"/><stop offset="1" stop-color="#7FC4E6"/></radialGradient><radialGradient id="gg" cx="34%" cy="28%" r="78%"><stop offset="0.08" stop-color="#FFF3BE"/><stop offset=".55" stop-color="#FFD700"/><stop offset="1" stop-color="#D9A800"/></radialGradient><radialGradient id="ggs" cx="34%" cy="28%" r="78%"><stop offset="0.08" stop-color="#FFF6D0"/><stop offset=".55" stop-color="#FFE064"/><stop offset="1" stop-color="#EFC200"/></radialGradient></defs><rect width="800" height="600" fill="url(#bg)"/><ellipse cx="380" cy="528" rx="320" ry="26" fill="#1F2937" opacity="0.06"/><ellipse cx="668" cy="452" rx="96" ry="13" fill="#1F2937" opacity="0.06"/><path d="M250 305.6Q243 406.8 252.3 508M182 354.4Q216 431.2 239.4 508M320 350.4Q289.6 429.2 260.9 508M236 439.2Q245.6 473.6 246.8 508M148 428Q187.2 468 231.1 508M336 432Q305.2 470 264.5 508M106 319.6Q169.6 413.8 217.2 508M386 307.6Q322.2 407.8 277.5 508M88 461.2Q140.5 484.6 216.4 508M400 463.2Q335 485.6 282.5 508M250 228Q254.5 368 252.7 508M528 392.4Q529.6 446.2 530.6 500M486 432Q506.8 466 519.1 500M578 426Q561.7 463 541.7 500" fill="none" stroke="#C7CDD8" stroke-width="1.5" opacity=".7"/><ellipse cx="250" cy="236" rx="50" ry="58" fill="url(#gb)"/><ellipse cx="233.5" cy="215.1" rx="8.5" ry="7.5" fill="#fff" opacity=".5"/><path d="M243 293.4h14l-7 11.6z" fill="#4FA8D8"/><ellipse cx="182" cy="292" rx="46" ry="52" fill="url(#gp)"/><ellipse cx="166.8" cy="273.3" rx="7.8" ry="6.8" fill="#fff" opacity=".5"/><path d="M175.6 343.5h12.9l-6.4 10.4z" fill="#D9438C"/><ellipse cx="320" cy="288" rx="46" ry="52" fill="url(#gbs)"/><ellipse cx="304.8" cy="269.3" rx="7.8" ry="6.8" fill="#fff" opacity=".5"/><path d="M313.6 339.5h12.9l-6.4 10.4z" fill="#8ACBEA"/><ellipse cx="236" cy="372" rx="50" ry="56" fill="url(#gb)"/><ellipse cx="219.5" cy="351.8" rx="8.5" ry="7.3" fill="#fff" opacity=".5"/><path d="M229 427.4h14l-7 11.2z" fill="#4FA8D8"/><ellipse cx="148" cy="368" rx="44" ry="50" fill="url(#gg)"/><ellipse cx="133.5" cy="350" rx="7.5" ry="6.5" fill="#fff" opacity=".5"/><path d="M141.8 417.5h12.3l-6.2 10z" fill="#D9A800"/><ellipse cx="336" cy="372" rx="44" ry="50" fill="url(#gb)"/><ellipse cx="321.5" cy="354" rx="7.5" ry="6.5" fill="#fff" opacity=".5"/><path d="M329.8 421.5h12.3l-6.2 10z" fill="#4FA8D8"/><ellipse cx="106" cy="268" rx="38" ry="43" fill="url(#gbs)"/><ellipse cx="93.5" cy="252.5" rx="6.5" ry="5.6" fill="#fff" opacity=".5"/><path d="M100.7 310.6h10.6l-5.3 8.6z" fill="#8ACBEA"/><ellipse cx="386" cy="256" rx="38" ry="43" fill="url(#gb)"/><ellipse cx="373.5" cy="240.5" rx="6.5" ry="5.6" fill="#fff" opacity=".5"/><path d="M380.7 298.6h10.6l-5.3 8.6z" fill="#4FA8D8"/><ellipse cx="88" cy="412" rx="36" ry="41" fill="url(#gg)"/><ellipse cx="76.1" cy="397.2" rx="6.1" ry="5.3" fill="#fff" opacity=".5"/><path d="M83 452.6h10.1l-5 8.2z" fill="#D9A800"/><ellipse cx="400" cy="414" rx="36" ry="41" fill="url(#gb)"/><ellipse cx="388.1" cy="399.2" rx="6.1" ry="5.3" fill="#fff" opacity=".5"/><path d="M395 454.6h10.1l-5 8.2z" fill="#4FA8D8"/><ellipse cx="250" cy="174" rx="40" ry="45" fill="url(#gp)"/><ellipse cx="236.8" cy="157.8" rx="6.8" ry="5.9" fill="#fff" opacity=".5"/><path d="M244.4 218.6h11.2l-5.6 9z" fill="#D9438C"/><ellipse cx="528" cy="330" rx="46" ry="52" fill="url(#gb)"/><ellipse cx="512.8" cy="311.3" rx="7.8" ry="6.8" fill="#fff" opacity=".5"/><path d="M521.6 381.5h12.9l-6.4 10.4z" fill="#4FA8D8"/><ellipse cx="486" cy="378" rx="40" ry="45" fill="url(#gps)"/><ellipse cx="472.8" cy="361.8" rx="6.8" ry="5.9" fill="#fff" opacity=".5"/><path d="M480.4 422.6h11.2l-5.6 9z" fill="#F07BB4"/><ellipse cx="578" cy="372" rx="40" ry="45" fill="url(#ggs)"/><ellipse cx="564.8" cy="355.8" rx="6.8" ry="5.9" fill="#fff" opacity=".5"/><path d="M572.4 416.6h11.2l-5.6 9z" fill="#F2C400"/><circle cx="250" cy="512" r="7" fill="#D9438C"/><circle cx="528" cy="504" r="7" fill="#D9438C"/><rect x="650" y="240" width="56" height="190" rx="14" fill="url(#gg)"/><path d="M650 268 596 306 596 262 650 226z" fill="#FFE479"/><rect x="622" y="412" width="112" height="32" rx="12" fill="#FFD700"/><path d="M666 252h16v166h-16z" fill="#FFFAE2" opacity=".55"/><path d="M604 292 648 264v14l-44 28z" fill="#FFF3BE" opacity=".7"/><path d="M650 306h56M650 356h56" stroke="#D9A800" stroke-width="2" opacity=".4" fill="none"/></svg>