<svg xmlns="http://www.w3.org/2000/svg" width="800" height="600" viewBox="0 0 800 600" preserveAspectRatio="xMidYMid slice"><defs><linearGradient id="bg" x1="0%" y1="0%" x2="100%" y2="100%"><stop offset="0" stop-color="#FFF7FB"/><stop offset="1" stop-color="#F1F9FF"/></linearGradient><radialGradient id="gp" cx="34%" cy="28%" r="78%"><stop offset="0.08" stop-color="#FFC4E0"/><stop offset=".55" stop-color="#FF69B4"/><stop offset="1" stop-color="#D9438C"/></radialGradient><radialGradient id="gps" cx="34%" cy="28%" r="78%"><stop offset="0.08" stop-color="#FFE4F2"/><stop offset=".55" stop-color="#FFA6CF"/><stop offset="1" stop-color="#F07BB4"/></radialGradient><radialGradient id="gb" cx="34%" cy="28%" r="78%"><stop offset="0.08" stop-color="#D9F0FC"/><stop offset=".55" stop-color="#87CEEB"/><stop offset="1" stop-color="#4FA8D8"/></radialGradient><radialGradient id="gbs" cx="34%" cy="28%" r="78%"><stop offset="0.08" stop-color="#E8F7FF"/><stop offset=".55" stop-color="#A9DCF5"/><stop offset="1" stop-color="#7FC4E6"/></radialGradient><radialGradient id="gg" cx="34%" cy="28%" r="78%"><stop offset="0.08" stop-color="#FFF3BE"/><stop offset=".55" stop-color="#FFD700"/><stop offset="1" stop-color="#D9A800"/></radialGradient><radialGradient id="gw" cx="34%" cy="28%" r="78%"><stop offset="0.08" stop-color="#FFFFFF"/><stop offset=".6" stop-color="#F2F6FB"/><stop offset="1" stop-color="#C9D2E0"/></radialGradient></defs><rect width="800" height="600" fill="url(#bg)"/><ellipse cx="400" cy="562" rx="280" ry="18" fill="#1F2937" opacity="0.05"/><ellipse cx="400" cy="298" rx="236" ry="204" fill="url(#gw)" opacity=".42"/><ellipse cx="400" cy="298" rx="236" ry="204" fill="none" stroke="#A9DCF5" stroke-width="3" opacity=".9"/><ellipse cx="298" cy="186" rx="76" ry="40" fill="#fff" opacity=".6" transform="rotate(-28 298 186)"/><path d="M330 375.2Q336.5 416.1 329.2 457M456 318.4Q452.2 360.2 456.2 402M414 442.8Q403.2 484.4 400.6 526M146 522.8Q142.3 539.4 144 556M654 508.8Q639.8 532.4 644.6 556" fill="none" stroke="#C7CDD8" stroke-width="1.5" opacity=".7"/><ellipse cx="330" cy="302" rx="54" ry="61" fill="url(#gg)"/><ellipse cx="312.2" cy="280" rx="9.2" ry="7.9" fill="#fff" opacity=".5"/><path d="M322.4 362.4h15.1l-7.6 12.2z" fill="#D9A800"/><ellipse cx="456" cy="256" rx="46" ry="52" fill="url(#gp)"/><ellipse cx="440.8" cy="237.3" rx="7.8" ry="6.8" fill="#fff" opacity=".5"/><path d="M449.6 307.5h12.9l-6.4 10.4z" fill="#D9438C"/><ellipse cx="414" cy="378" rx="48" ry="54" fill="url(#gb)"/><ellipse cx="398.2" cy="358.6" rx="8.2" ry="7" fill="#fff" opacity=".5"/><path d="M407.3 431.5h13.4l-6.7 10.8z" fill="#4FA8D8"/><ellipse cx="146" cy="476" rx="34" ry="39" fill="url(#gps)"/><ellipse cx="134.8" cy="462" rx="5.8" ry="5.1" fill="#fff" opacity=".5"/><path d="M141.2 514.6h9.5l-4.8 7.8z" fill="#F07BB4"/><ellipse cx="654" cy="462" rx="34" ry="39" fill="url(#gbs)"/><ellipse cx="642.8" cy="448" rx="5.8" ry="5.1" fill="#fff" opacity=".5"/><path d="M649.2 500.6h9.5l-4.8 7.8z" fill="#8ACBEA"/><rect x="423.2" y="407.9" width="9.2" height="3" rx="1.5" fill="#FFA6CF" opacity=".7" transform="rotate(18 423.2 407.9)"/><rect x="315.7" y="425.4" width="6.7" height="4.2" rx="1.5" fill="#FF69B4" opacity=".7" transform="rotate(33 315.7 425.4)"/><circle cx="472.5" cy="158" r="3.6" fill="#FFA6CF" opacity=".7"/><rect x="448.8" y="207.5" width="7.7" height="3.3" rx="1.5" fill="#87CEEB" opacity=".7" transform="rotate(4 448.8 207.5)"/><rect x="489" y="378.5" width="9.4" height="4.9" rx="1.5" fill="#FFD700" opacity=".7" transform="rotate(0 489 378.5)"/><rect x="204.5" y="160.1" width="9.8" height="4.9" rx="1.5" fill="#FFD700" opacity=".7" transform="rotate(81 204.5 160.1)"/><circle cx="259.8" cy="394.3" r="5.8" fill="#FFA6CF" opacity=".7"/><circle cx="308.1" cy="104.2" r="3.3" fill="#FFD700" opacity=".7"/><rect x="755.6" y="66" width="8.7" height="3.4" rx="1.5" fill="#B9E3F7" opacity=".7" transform="rotate(47 755.6 66)"/><rect x="380.2" y="111.3" width="8.8" height="4.7" rx="1.5" fill="#87CEEB" opacity=".7" transform="rotate(43 380.2 111.3)"/><rect x="199.9" y="149.6" width="7.8" height="3.2" rx="1.5" fill="#FF69B4" opacity=".7" transform="rotate(67 199.9 149.6)"/><rect x="742.8" y="132" width="8.2" height="4.3" rx="1.5" fill="#FF69B4" opacity=".7" transform="rotate(5 742.8 132)"/></svg>